<svg width="21" height="24" viewBox="0 0 21 24" fill="none" xmlns="http://www.w3.org/2000/svg">
<g clip-path="url(#clip0_1_9)">
<path d="M10.2857 0C9.47297 0 8.81634 0.670312 8.81634 1.5V2.4C5.4643 3.09375 2.93879 6.12187 2.93879 9.75V10.9406C2.93879 13.0687 2.22705 15.1359 0.927562 16.7953L0.243378 17.6719C-0.0229484 18.0094 -0.0734586 18.4734 0.110215 18.8625C0.293888 19.2516 0.679603 19.5 1.10205 19.5H19.4694C19.8918 19.5 20.2776 19.2516 20.4612 18.8625C20.6449 18.4734 20.5944 18.0094 20.3281 17.6719L19.6439 16.8C18.3444 15.1359 17.6327 13.0687 17.6327 10.9406V9.75C17.6327 6.12187 15.1072 3.09375 11.7551 2.4V1.5C11.7551 0.670312 11.0985 0 10.2857 0ZM10.2857 4.5C13.1281 4.5 15.4286 6.84844 15.4286 9.75V10.9406C15.4286 13.1859 16.0668 15.375 17.2515 17.25H3.31991C4.5046 15.375 5.14287 13.1859 5.14287 10.9406V9.75C5.14287 6.84844 7.44338 4.5 10.2857 4.5ZM13.2245 21H10.2857H7.34695C7.34695 21.7969 7.6546 22.5609 8.20562 23.1234C8.75664 23.6859 9.50511 24 10.2857 24C11.0663 24 11.8148 23.6859 12.3658 23.1234C12.9168 22.5609 13.2245 21.7969 13.2245 21Z" fill="black"/>
</g>
<defs>
<clipPath id="clip0_1_9">
<rect width="20.5714" height="24" fill="white"/>
</clipPath>
</defs>
</svg>
