<svg width="24" height="24" viewBox="0 0 24 24" fill="none" xmlns="http://www.w3.org/2000/svg">
<rect width="24" height="24" fill="white"/>
<path d="M17.7682 7.40663C18.1213 7.04237 18.065 6.50134 17.6401 6.19869C17.2151 5.89603 16.5839 5.94424 16.2308 6.3085L12 10.6608L7.76915 6.3085C7.41606 5.94424 6.78487 5.89603 6.35991 6.19869C5.93495 6.50134 5.87871 7.04237 6.2318 7.40663L10.697 12L6.2318 16.5934C5.87871 16.9576 5.93495 17.4987 6.35991 17.8013C6.78487 18.104 7.41606 18.0558 7.76915 17.6915L12 13.3392L16.2308 17.6915C16.5839 18.0558 17.2151 18.104 17.6401 17.8013C18.065 17.4987 18.1213 16.9576 17.7682 16.5934L13.303 12L17.7682 7.40663Z" fill="#A5A5A5"/>
</svg>
