<svg width="28" height="28" viewBox="0 0 28 28" fill="none" xmlns="http://www.w3.org/2000/svg">
<rect width="28" height="28" rx="4" fill="black"/>
<path d="M13.8125 24.1875C11.9297 24.1875 10.5703 23.7188 9.73438 22.7812C8.90625 21.8438 8.49219 20.3516 8.49219 18.3047V16.2891H12.5703V18.8672C12.5703 19.3438 12.6406 19.7188 12.7812 19.9922C12.9297 20.2578 13.1836 20.3906 13.543 20.3906C13.918 20.3906 14.1758 20.2812 14.3164 20.0625C14.4648 19.8438 14.5391 19.4844 14.5391 18.9844C14.5391 18.3516 14.4766 17.8242 14.3516 17.4023C14.2266 16.9727 14.0078 16.5664 13.6953 16.1836C13.3906 15.793 12.9648 15.3398 12.418 14.8242L10.5664 13.0664C9.18359 11.7617 8.49219 10.2695 8.49219 8.58984C8.49219 6.83203 8.89844 5.49219 9.71094 4.57031C10.5312 3.64844 11.7148 3.1875 13.2617 3.1875C15.1523 3.1875 16.4922 3.69141 17.2812 4.69922C18.0781 5.70703 18.4766 7.23828 18.4766 9.29297H14.2812V7.875C14.2812 7.59375 14.1992 7.375 14.0352 7.21875C13.8789 7.0625 13.6641 6.98438 13.3906 6.98438C13.0625 6.98438 12.8203 7.07812 12.6641 7.26562C12.5156 7.44531 12.4414 7.67969 12.4414 7.96875C12.4414 8.25781 12.5195 8.57031 12.6758 8.90625C12.832 9.24219 13.1406 9.62891 13.6016 10.0664L15.9805 12.3516C16.457 12.8047 16.8945 13.2852 17.293 13.793C17.6914 14.293 18.0117 14.8789 18.2539 15.5508C18.4961 16.2148 18.6172 17.0273 18.6172 17.9883C18.6172 19.9258 18.2578 21.4453 17.5391 22.5469C16.8281 23.6406 15.5859 24.1875 13.8125 24.1875Z" fill="white"/>
<circle cx="20.5" cy="23.5" r="1.5" fill="white"/>
</svg>
